<svg width="54" height="54" viewBox="0 0 54 54" fill="none" xmlns="http://www.w3.org/2000/svg">
<mask id="mask0_218_46" style="mask-type:luminance" maskUnits="userSpaceOnUse" x="0" y="10" width="54" height="33">
<path d="M0 10H54V42.4H0V10Z" fill="white"/>
</mask>
<g mask="url(#mask0_218_46)">
<path fill-rule="evenodd" clip-rule="evenodd" d="M27 10C19.8 10 15.3 13.6 13.5 20.8C16.2 17.2 19.35 15.85 22.95 16.75C25.004 17.263 26.472 18.754 28.097 20.403C30.744 23.09 33.808 26.2 40.5 26.2C47.7 26.2 52.2 22.6 54 15.4C51.3 19 48.15 20.35 44.55 19.45C42.496 18.937 41.028 17.446 39.403 15.797C36.756 13.11 33.692 10 27 10ZM13.5 26.2C6.3 26.2 1.8 29.8 0 37C2.7 33.4 5.85 32.05 9.45 32.95C11.504 33.464 12.972 34.954 14.597 36.603C17.244 39.29 20.308 42.4 27 42.4C34.2 42.4 38.7 38.8 40.5 31.6C37.8 35.2 34.65 36.55 31.05 35.65C28.996 35.137 27.528 33.646 25.903 31.997C23.256 29.31 20.192 26.2 13.5 26.2Z" fill="#38BDF8"/>
</g>
</svg>
